<?xml version="1.0" encoding="utf-8"?>
<!-- Generator: Adobe Illustrator 28.0.0, SVG Export Plug-In . SVG Version: 6.00 Build 0)  -->
<svg version="1.1" id="Layer_1" xmlns="http://www.w3.org/2000/svg" xmlns:xlink="http://www.w3.org/1999/xlink" x="0px" y="0px"
	 viewBox="0 0 289 122" style="enable-background:new 0 0 289 122;" xml:space="preserve">
<style type="text/css">
	.st0{fill:#FFFFFF;filter:url(#Adobe_OpacityMaskFilter);}
	.st1{mask:url(#path-1-inside-1_2073_210_00000051347103243736239160000014037572086532482741_);}
	.st2{fill:#99E9F2;enable-background:new    ;}
	.st3{fill:#64B5F6;enable-background:new    ;}
	.st4{fill:#6E6EFD;enable-background:new    ;}
</style>
<defs>
	<filter id="Adobe_OpacityMaskFilter" filterUnits="userSpaceOnUse" x="67.3" y="34.8" width="192.5" height="48.2">
		<feColorMatrix  type="matrix" values="1 0 0 0 0  0 1 0 0 0  0 0 1 0 0  0 0 0 1 0"/>
	</filter>
</defs>
<mask maskUnits="userSpaceOnUse" x="67.3" y="34.8" width="192.5" height="48.2" id="path-1-inside-1_2073_210_00000051347103243736239160000014037572086532482741_">
	<path class="st0" d="M97.4,76.8l-9.8-10.6v5c0,4.8-3.5,8.3-8.3,8.3c-4.8,0-8.3-3.5-8.3-8.3V46.8c0-4.8,3.5-8.3,8.3-8.3
		c2.5,0,4.7,0.9,6.2,2.6l9.8,10.6v-5c0-4.8,3.5-8.3,8.3-8.3c4.8,0,8.3,3.5,8.3,8.3v24.2c0,4.8-3.5,8.3-8.3,8.3
		C101,79.3,98.9,78.4,97.4,76.8z M143.5,75.4l-1.9-3.2h-9.9l-1.8,3.2c-1.6,2.8-4.2,4-7.2,4c-4.8,0-8.3-3.5-8.3-8.3
		c0-1.5,0.4-3,1-4.2l13.9-24.2c1.4-2.5,4-4.1,7.2-4.1c3.3,0,5.8,1.6,7.2,4.1l13.9,24.2c0.7,1.2,1,2.6,1,4.2c0,4.8-3.5,8.3-8.3,8.3
		C147.8,79.3,145.1,78.1,143.5,75.4z M171.1,42.5l6.8,11.8l6.8-11.8c1.6-2.8,4.2-4,7.2-4c4.8,0,8.3,3.5,8.3,8.3c0,1.5-0.4,3-1,4.2
		l-13.9,24.2c-1.4,2.5-4,4.1-7.2,4.1c-3.3,0-5.8-1.6-7.2-4.1L156.7,51c-0.7-1.2-1-2.6-1-4.2c0-4.8,3.5-8.3,8.3-8.3
		C166.9,38.6,169.5,39.8,171.1,42.5z M202.8,71.1V46.8c0-4.8,3.5-8.3,8.3-8.3s8.3,3.5,8.3,8.3v24.2c0,4.8-3.5,8.3-8.3,8.3
		S202.8,75.9,202.8,71.1z M225.8,70.4c-0.5-1.1-0.8-2.3-0.8-3.6c0-1.7,0.4-3.2,1.2-4.5c-1.2-2.3-1.9-4.9-1.9-7.8
		c0-9.2,6.7-15.9,15.9-15.9c6.6,0,12,3.5,14.4,8.9c0.5,1.1,0.8,2.3,0.8,3.6c0,1.7-0.4,3.3-1.2,4.5c1.2,2.3,1.9,4.9,1.9,7.8
		c0,9.2-6.7,15.9-15.9,15.9C233.6,79.3,228.2,75.8,225.8,70.4z"/>
</mask>
<path class="st1" d="M97.4,76.8l2.8-2.5l0,0l0,0L97.4,76.8z M87.6,66.1l2.7-2.5l-6.5-7v9.5H87.6z M85.5,41.2l-2.8,2.5l0,0l0,0
	L85.5,41.2z M95.3,51.8l-2.7,2.5l6.5,7v-9.5H95.3z M97.4,76.8l2.7-2.5l-9.8-10.6l-2.7,2.5l-2.7,2.5l9.8,10.6L97.4,76.8z M87.6,66.1
	h-3.7v5h3.7h3.7v-5H87.6z M87.6,71.1h-3.7c0,2.7-1.8,4.5-4.5,4.5v3.7v3.7c6.8,0,12-5.1,12-12H87.6z M79.3,79.3v-3.7
	c-2.7,0-4.5-1.8-4.5-4.5H71h-3.7c0,6.8,5.1,12,12,12V79.3z M71,71.1h3.7V46.8H71h-3.7v24.2H71z M71,46.8h3.7c0-2.7,1.8-4.5,4.5-4.5
	v-3.7v-3.7c-6.8,0-12,5.1-12,12H71z M79.3,38.6v3.7c1.6,0,2.7,0.6,3.4,1.4l2.8-2.5l2.8-2.5c-2.3-2.5-5.4-3.8-8.9-3.8V38.6z
	 M85.5,41.2l-2.7,2.5l9.8,10.6l2.7-2.5l2.7-2.5l-9.8-10.6L85.5,41.2z M95.3,51.8H99v-5h-3.7h-3.7v5H95.3z M95.3,46.8H99
	c0-2.7,1.8-4.5,4.5-4.5v-3.7v-3.7c-6.8,0-12,5.1-12,12H95.3z M103.5,38.6v3.7c2.7,0,4.5,1.8,4.5,4.5h3.7h3.7c0-6.8-5.1-12-12-12
	V38.6z M111.8,46.8h-3.7v24.2h3.7h3.7V46.8H111.8z M111.8,71.1h-3.7c0,2.7-1.8,4.5-4.5,4.5v3.7v3.7c6.8,0,12-5.1,12-12H111.8z
	 M103.5,79.3v-3.7c-1.6,0-2.7-0.6-3.4-1.4l-2.8,2.5l-2.8,2.5c2.3,2.5,5.4,3.8,8.9,3.8V79.3z M143.5,75.4l3.2-1.9l0,0l0,0L143.5,75.4
	z M141.7,72.2l3.2-1.9l-1.1-1.8h-2.1V72.2z M131.8,72.2v-3.7h-2.2l-1.1,1.9L131.8,72.2z M130,75.4l3.2,1.9l0,0l0,0L130,75.4z
	 M115.6,66.9l-3.2-1.9l0,0l0,0L115.6,66.9z M129.5,42.6l-3.2-1.9l0,0L129.5,42.6z M144,42.6l3.2-1.9l0,0L144,42.6z M157.9,66.9
	l3.3-1.8l0,0l0,0L157.9,66.9z M143.5,75.4l3.2-1.9l-1.9-3.2l-3.2,1.9l-3.2,1.9l1.9,3.2L143.5,75.4z M141.7,72.2v-3.7h-9.9v3.7v3.7
	h9.9V72.2z M131.8,72.2l-3.2-1.8l-1.8,3.2l3.2,1.8l3.2,1.8L135,74L131.8,72.2z M130,75.4l-3.2-1.9c-0.8,1.4-2.1,2.1-3.9,2.1v3.7v3.7
	c4,0,8-1.7,10.4-5.8L130,75.4z M122.8,79.3v-3.7c-2.7,0-4.5-1.8-4.5-4.5h-3.7h-3.7c0,6.8,5.1,12,12,12V79.3z M114.6,71.1h3.7
	c0-0.9,0.2-1.7,0.6-2.4l-3.3-1.8l-3.3-1.8c-1,1.8-1.5,3.8-1.5,6H114.6z M115.6,66.9l3.2,1.9l13.9-24.2l-3.2-1.9l-3.2-1.9L112.4,65
	L115.6,66.9z M129.5,42.6l3.2,1.9c0.8-1.3,2.1-2.2,4-2.2v-3.7v-3.7c-4.6,0-8.4,2.3-10.4,5.9L129.5,42.6z M136.8,38.6v3.7
	c1.9,0,3.2,0.9,4,2.2l3.2-1.9l3.2-1.9c-2.1-3.6-5.8-5.9-10.4-5.9V38.6z M144,42.6l-3.2,1.9l13.9,24.2l3.2-1.9l3.2-1.9l-13.9-24.2
	L144,42.6z M157.9,66.9l-3.3,1.8c0.4,0.7,0.6,1.5,0.6,2.4h3.7h3.7c0-2.2-0.5-4.2-1.5-6L157.9,66.9z M159,71.1h-3.7
	c0,2.7-1.8,4.5-4.5,4.5v3.7v3.7c6.9,0,12-5.1,12-12H159z M150.7,79.3v-3.7c-1.8,0-3.1-0.7-3.9-2.1l-3.2,1.9l-3.2,1.9
	c2.4,4.1,6.4,5.8,10.4,5.8V79.3z M171.1,42.5l3.2-1.9l0,0l0,0L171.1,42.5z M177.9,54.3l-3.2,1.9l3.2,5.6l3.2-5.6L177.9,54.3z
	 M184.6,42.5l-3.2-1.9l0,0l0,0L184.6,42.5z M199,51l3.2,1.9l0,0l0,0L199,51z M185.1,75.3l3.2,1.9l0,0L185.1,75.3z M170.7,75.3
	l-3.2,1.9l0,0L170.7,75.3z M156.7,51l-3.3,1.8l0,0l0,0L156.7,51z M171.1,42.5l-3.2,1.9l6.8,11.8l3.2-1.9l3.2-1.9l-6.8-11.8
	L171.1,42.5z M177.9,54.3l3.2,1.9l6.8-11.8l-3.2-1.9l-3.2-1.9l-6.8,11.8L177.9,54.3z M184.6,42.5l3.2,1.9c0.8-1.4,2.1-2.1,3.9-2.1
	v-3.7v-3.7c-4,0-8,1.7-10.4,5.8L184.6,42.5z M191.8,38.6v3.7c2.7,0,4.5,1.8,4.5,4.5h3.7h3.7c0-6.8-5.1-12-12-12V38.6z M200.1,46.8
	h-3.7c0,0.9-0.2,1.7-0.6,2.4L199,51l3.3,1.8c1-1.8,1.5-3.8,1.5-6H200.1z M199,51l-3.2-1.9l-13.9,24.2l3.2,1.9l3.2,1.9l13.9-24.2
	L199,51z M185.1,75.3l-3.2-1.9c-0.8,1.3-2.1,2.2-4,2.2v3.7v3.7c4.6,0,8.4-2.3,10.4-5.9L185.1,75.3z M177.9,79.3v-3.7
	c-1.9,0-3.2-0.9-4-2.2l-3.2,1.9l-3.2,1.9c2.1,3.6,5.8,5.9,10.4,5.9V79.3z M170.7,75.3l3.2-1.9l-13.9-24.2l-3.2,1.9l-3.2,1.9
	l13.9,24.2L170.7,75.3z M156.7,51l3.3-1.8c-0.4-0.7-0.6-1.5-0.6-2.4h-3.7h-3.7c0,2.2,0.5,4.2,1.5,6L156.7,51z M155.7,46.8h3.7
	c0-2.7,1.8-4.5,4.5-4.5v-3.7v-3.7c-6.8,0-12,5.1-12,12H155.7z M163.9,38.6v3.7c1.8,0,3.1,0.7,3.9,2.1l3.2-1.9l3.2-1.9
	c-2.4-4.1-6.4-5.8-10.4-5.8V38.6z M202.8,71.1h3.7V46.8h-3.7h-3.7v24.2H202.8z M202.8,46.8h3.7c0-2.7,1.8-4.5,4.5-4.5v-3.7v-3.7
	c-6.9,0-12,5.1-12,12H202.8z M211.1,38.6v3.7c2.7,0,4.5,1.8,4.5,4.5h3.7h3.7c0-6.8-5.1-12-12-12V38.6z M219.3,46.8h-3.7v24.2h3.7
	h3.7V46.8H219.3z M219.3,71.1h-3.7c0,2.7-1.8,4.5-4.5,4.5v3.7v3.7c6.8,0,12-5.1,12-12H219.3z M211.1,79.3v-3.7
	c-2.7,0-4.5-1.8-4.5-4.5h-3.7h-3.7c0,6.8,5.1,12,12,12V79.3z M225.8,70.4l3.4-1.5l0,0L225.8,70.4z M226.2,62.3l3.2,1.9l1.1-1.8
	l-1-1.8L226.2,62.3z M254.6,47.5l-3.4,1.5l0,0L254.6,47.5z M254.1,55.6l-3.2-1.9l-1.1,1.8l1,1.9L254.1,55.6z M225.8,70.4l3.4-1.5
	c-0.3-0.6-0.4-1.3-0.4-2.1H225h-3.7c0,1.9,0.4,3.6,1.1,5.2L225.8,70.4z M225,66.8h3.7c0-1,0.3-1.9,0.7-2.6l-3.2-1.9l-3.2-1.9
	c-1.1,1.9-1.7,4.1-1.7,6.4H225z M226.2,62.3l3.3-1.8c-0.9-1.7-1.5-3.8-1.5-6.1h-3.7h-3.7c0,3.5,0.9,6.8,2.4,9.6L226.2,62.3z
	 M224.3,54.4h3.7c0-7.1,5-12.1,12.1-12.1v-3.7v-3.7c-11.3,0-19.6,8.3-19.6,19.6H224.3z M240.2,38.6v3.7c5.2,0,9.2,2.7,11,6.7
	l3.4-1.5L258,46c-3.1-6.8-9.8-11.1-17.8-11.1V38.6z M254.6,47.5l-3.4,1.5c0.3,0.6,0.4,1.3,0.4,2.1h3.7h3.7c0-1.9-0.4-3.6-1.1-5.2
	L254.6,47.5z M255.3,51.1h-3.7c0,1.1-0.3,1.9-0.7,2.6l3.2,1.9l3.2,1.9c1.1-1.9,1.8-4.1,1.8-6.5H255.3z M254.1,55.6l-3.3,1.8
	c0.9,1.7,1.5,3.8,1.5,6.1h3.7h3.7c0-3.5-0.9-6.8-2.4-9.6L254.1,55.6z M256.1,63.5h-3.7c0,7.1-5,12.1-12.1,12.1v3.7v3.7
	c11.3,0,19.6-8.3,19.6-19.6H256.1z M240.2,79.3v-3.7c-5.2,0-9.2-2.7-11-6.7l-3.4,1.5l-3.4,1.5c3.1,6.8,9.8,11.1,17.8,11.1V79.3z"/>
<path class="st2" d="M24.6,66.9c-0.2-0.2-0.5-0.2-0.7,0l-4.4,4.5c-1.6,1.6-3.7,2.5-5.9,2.5c-2.2,0-4.4-0.9-5.9-2.5
	c-1.6-1.6-2.5-3.8-2.5-6c0-2.3,0.9-4.4,2.4-6.1l6.9-7.1c0.1-0.1,0.2-0.3,0.2-0.5c0,0,0-0.1,0-0.1c0-0.8,0.1-1.6,0.2-2.3
	c0-0.2-0.3-0.4-0.4-0.2L6,57.7c-2,2-3.1,4.8-3.1,7.7c0,2.9,1.1,5.6,3.1,7.6c2,2,4.7,3.2,7.5,3.2c2.8,0,5.5-1.1,7.5-3.1l4.4-4.5
	c0.2-0.2,0.2-0.5,0-0.7L24.6,66.9z"/>
<path class="st3" d="M40,76.6c-1.4,0-2.8-0.3-4.1-0.8c-1.3-0.5-2.5-1.3-3.4-2.3L19,59.7c-2-2-3.1-4.8-3.1-7.7c0-2.9,1.1-5.6,3.1-7.7
	c2-2,4.7-3.2,7.5-3.2c2.8,0,5.5,1.1,7.5,3.2l13.5,13.7c1.5,1.5,2.5,3.4,2.9,5.5c0.4,2.1,0.2,4.3-0.6,6.3c-0.8,2-2.2,3.7-3.9,4.9
	C44.2,76,42.1,76.7,40,76.6z M34.1,71.9c1.6,1.6,3.7,2.5,5.9,2.5c2.2,0,4.4-0.9,5.9-2.5c1.6-1.6,2.5-3.8,2.5-6
	c0-2.3-0.9-4.4-2.4-6.1L32.5,46c-0.8-0.8-1.7-1.4-2.7-1.9c-1-0.4-2.1-0.7-3.2-0.7c-1.1,0-2.2,0.2-3.2,0.6c-1,0.4-2,1.1-2.7,1.9
	c-0.8,0.8-1.4,1.8-1.8,2.8c-0.4,1-0.6,2.2-0.6,3.3c0,1.1,0.2,2.3,0.7,3.3c0.4,1,1.1,2,1.9,2.8L34.1,71.9z"/>
<path class="st4" d="M45.5,44.9L41,49.4c-0.2,0.2-0.2,0.5,0,0.7l0.9,0.9c0.2,0.2,0.5,0.2,0.7,0l4.4-4.5c1.6-1.6,3.7-2.5,5.9-2.5
	c2.2,0,4.4,0.9,5.9,2.5c1.6,1.6,2.5,3.8,2.5,6c0,2.3-0.9,4.4-2.4,6.1L52,65.7c-0.1,0.1-0.2,0.3-0.2,0.5c0,0.8-0.1,1.6-0.2,2.4
	c0,0.2,0.3,0.4,0.4,0.2l8.5-8.6c2-2,3.1-4.8,3.1-7.7c0-2.9-1.1-5.6-3.1-7.7c-2-2-4.7-3.2-7.5-3.2C50.2,41.7,47.5,42.9,45.5,44.9z"/>
</svg>
