<?xml version="1.0" encoding="utf-8"?>
<!-- Generator: Adobe Illustrator 28.0.0, SVG Export Plug-In . SVG Version: 6.00 Build 0)  -->
<svg version="1.1" id="Layer_1" xmlns="http://www.w3.org/2000/svg" xmlns:xlink="http://www.w3.org/1999/xlink" x="0px" y="0px"
	 viewBox="0 0 289 122" style="enable-background:new 0 0 289 122;" xml:space="preserve">
<style type="text/css">
	.st0{fill:#FFFFFF;filter:url(#Adobe_OpacityMaskFilter);}
	.st1{mask:url(#path-1-inside-1_2073_210_00000129181016562667804750000003175990053496837765_);fill:#FFFFFF;}
	.st2{fill:#99E9F2;enable-background:new    ;}
	.st3{fill:#64B5F6;enable-background:new    ;}
	.st4{fill:#6E6EFD;enable-background:new    ;}
</style>
<defs>
	<filter id="Adobe_OpacityMaskFilter" filterUnits="userSpaceOnUse" x="68.3" y="34.5" width="192.5" height="48.2">
		<feColorMatrix  type="matrix" values="1 0 0 0 0  0 1 0 0 0  0 0 1 0 0  0 0 0 1 0"/>
	</filter>
</defs>
<mask maskUnits="userSpaceOnUse" x="68.3" y="34.5" width="192.5" height="48.2" id="path-1-inside-1_2073_210_00000129181016562667804750000003175990053496837765_">
	<path class="st0" d="M98.4,76.4l-9.8-10.6v5c0,4.8-3.5,8.3-8.3,8.3c-4.8,0-8.3-3.5-8.3-8.3V46.5c0-4.8,3.5-8.3,8.3-8.3
		c2.5,0,4.7,0.9,6.2,2.6l9.8,10.6v-5c0-4.8,3.5-8.3,8.3-8.3c4.8,0,8.3,3.5,8.3,8.3v24.2c0,4.8-3.5,8.3-8.3,8.3
		C102,79,99.9,78.1,98.4,76.4z M144.5,75l-1.9-3.2h-9.9L131,75c-1.6,2.8-4.2,4-7.2,4c-4.8,0-8.3-3.5-8.3-8.3c0-1.5,0.4-3,1-4.2
		l13.9-24.2c1.4-2.5,4-4.1,7.2-4.1s5.8,1.6,7.2,4.1l13.9,24.2c0.7,1.2,1,2.6,1,4.2c0,4.8-3.5,8.3-8.3,8.3
		C148.8,79,146.1,77.8,144.5,75z M172.1,42.2l6.8,11.8l6.8-11.8c1.6-2.8,4.2-4,7.2-4c4.8,0,8.3,3.5,8.3,8.3c0,1.5-0.4,3-1,4.2
		l-13.9,24.2c-1.4,2.5-4,4.1-7.2,4.1s-5.8-1.6-7.2-4.1l-13.9-24.2c-0.7-1.2-1-2.6-1-4.2c0-4.8,3.5-8.3,8.3-8.3
		C167.8,38.2,170.5,39.5,172.1,42.2z M203.8,70.8V46.5c0-4.8,3.5-8.3,8.3-8.3c4.8,0,8.3,3.5,8.3,8.3v24.2c0,4.8-3.5,8.3-8.3,8.3
		C207.3,79,203.8,75.5,203.8,70.8z M226.8,70.1c-0.5-1.1-0.8-2.3-0.8-3.6c0-1.7,0.4-3.2,1.2-4.5c-1.2-2.3-1.9-4.9-1.9-7.8
		c0-9.2,6.7-15.9,15.9-15.9c6.6,0,12,3.5,14.4,8.9c0.5,1.1,0.8,2.3,0.8,3.6c0,1.7-0.4,3.3-1.2,4.5c1.2,2.3,1.9,4.9,1.9,7.8
		c0,9.2-6.7,15.9-15.9,15.9C234.6,79,229.2,75.5,226.8,70.1z"/>
</mask>
<path class="st1" d="M98.4,76.4l2.8-2.5l0,0l0,0L98.4,76.4z M88.6,65.8l2.7-2.5l-6.5-7v9.5H88.6z M86.5,40.8l-2.8,2.5l0,0l0,0
	L86.5,40.8z M96.3,51.5L93.5,54l6.5,7v-9.5H96.3z M98.4,76.4l2.7-2.5l-9.8-10.6l-2.7,2.5l-2.7,2.5L95.6,79L98.4,76.4z M88.6,65.8
	h-3.7v5h3.7h3.7v-5H88.6z M88.6,70.8h-3.7c0,2.7-1.8,4.5-4.5,4.5V79v3.7c6.8,0,12-5.1,12-12H88.6z M80.3,79v-3.7
	c-2.7,0-4.5-1.8-4.5-4.5H72h-3.7c0,6.8,5.1,12,12,12V79z M72,70.8h3.7V46.5H72h-3.7v24.2H72z M72,46.5h3.7c0-2.7,1.8-4.5,4.5-4.5
	v-3.7v-3.7c-6.8,0-12,5.1-12,12H72z M80.3,38.2V42c1.6,0,2.7,0.6,3.4,1.4l2.8-2.5l2.8-2.5c-2.3-2.5-5.4-3.8-8.9-3.8V38.2z
	 M86.5,40.8l-2.7,2.5L93.5,54l2.7-2.5l2.7-2.5l-9.8-10.6L86.5,40.8z M96.3,51.5h3.7v-5h-3.7h-3.7v5H96.3z M96.3,46.5h3.7
	c0-2.7,1.8-4.5,4.5-4.5v-3.7v-3.7c-6.8,0-12,5.1-12,12H96.3z M104.5,38.2V42c2.7,0,4.5,1.8,4.5,4.5h3.7h3.7c0-6.8-5.1-12-12-12V38.2
	z M112.8,46.5h-3.7v24.2h3.7h3.7V46.5H112.8z M112.8,70.8h-3.7c0,2.7-1.8,4.5-4.5,4.5V79v3.7c6.8,0,12-5.1,12-12H112.8z M104.5,79
	v-3.7c-1.6,0-2.7-0.6-3.4-1.4l-2.8,2.5l-2.8,2.5c2.3,2.5,5.4,3.8,8.9,3.8V79z M144.5,75l3.2-1.9l0,0l0,0L144.5,75z M142.7,71.9
	l3.2-1.9l-1.1-1.8h-2.1V71.9z M132.8,71.9v-3.7h-2.2l-1.1,1.9L132.8,71.9z M131,75l3.2,1.9l0,0l0,0L131,75z M116.6,66.6l-3.2-1.9
	l0,0l0,0L116.6,66.6z M130.5,42.3l-3.2-1.9l0,0L130.5,42.3z M145,42.3l3.2-1.9l0,0L145,42.3z M158.9,66.6l3.3-1.8l0,0l0,0
	L158.9,66.6z M144.5,75l3.2-1.9l-1.9-3.2l-3.2,1.9l-3.2,1.9l1.9,3.2L144.5,75z M142.7,71.9v-3.7h-9.9v3.7v3.7h9.9V71.9z M132.8,71.9
	l-3.2-1.8l-1.8,3.2L131,75l3.2,1.8l1.8-3.2L132.8,71.9z M131,75l-3.2-1.9c-0.8,1.4-2.1,2.1-3.9,2.1V79v3.7c4,0,8-1.7,10.4-5.8
	L131,75z M123.8,79v-3.7c-2.7,0-4.5-1.8-4.5-4.5h-3.7h-3.7c0,6.8,5.1,12,12,12V79z M115.5,70.8h3.7c0-0.9,0.2-1.7,0.6-2.4l-3.3-1.8
	l-3.3-1.8c-1,1.8-1.5,3.8-1.5,6H115.5z M116.6,66.6l3.2,1.9l13.9-24.2l-3.2-1.9l-3.2-1.9l-13.9,24.2L116.6,66.6z M130.5,42.3
	l3.2,1.9c0.8-1.3,2.1-2.2,4-2.2v-3.7v-3.7c-4.6,0-8.4,2.3-10.4,5.9L130.5,42.3z M137.8,38.2V42c1.9,0,3.2,0.9,4,2.2l3.2-1.9l3.2-1.9
	c-2.1-3.6-5.8-5.9-10.4-5.9V38.2z M145,42.3l-3.2,1.9l13.9,24.2l3.2-1.9l3.2-1.9l-13.9-24.2L145,42.3z M158.9,66.6l-3.3,1.8
	c0.4,0.7,0.6,1.5,0.6,2.4h3.7h3.7c0-2.2-0.5-4.2-1.5-6L158.9,66.6z M160,70.8h-3.7c0,2.7-1.8,4.5-4.5,4.5V79v3.7c6.9,0,12-5.1,12-12
	H160z M151.7,79v-3.7c-1.8,0-3.1-0.7-3.9-2.1l-3.2,1.9l-3.2,1.9c2.4,4.1,6.4,5.8,10.4,5.8V79z M172.1,42.2l3.2-1.9l0,0l0,0
	L172.1,42.2z M178.9,54l-3.2,1.9l3.2,5.6l3.2-5.6L178.9,54z M185.6,42.2l-3.2-1.9l0,0l0,0L185.6,42.2z M200,50.7l3.2,1.9l0,0l0,0
	L200,50.7z M186.1,74.9l3.2,1.9l0,0L186.1,74.9z M171.6,74.9l-3.2,1.9l0,0L171.6,74.9z M157.7,50.7l-3.3,1.8l0,0l0,0L157.7,50.7z
	 M172.1,42.2l-3.2,1.9l6.8,11.8l3.2-1.9l3.2-1.9l-6.8-11.8L172.1,42.2z M178.9,54l3.2,1.9l6.8-11.8l-3.2-1.9l-3.2-1.9l-6.8,11.8
	L178.9,54z M185.6,42.2l3.2,1.9c0.8-1.4,2.1-2.1,3.9-2.1v-3.7v-3.7c-4,0-8,1.7-10.4,5.8L185.6,42.2z M192.8,38.2V42
	c2.7,0,4.5,1.8,4.5,4.5h3.7h3.7c0-6.8-5.1-12-12-12V38.2z M201.1,46.5h-3.7c0,0.9-0.2,1.7-0.6,2.4l3.3,1.8l3.3,1.8
	c1-1.8,1.5-3.8,1.5-6H201.1z M200,50.7l-3.2-1.9l-13.9,24.2l3.2,1.9l3.2,1.9l13.9-24.2L200,50.7z M186.1,74.9l-3.2-1.9
	c-0.8,1.3-2.1,2.2-4,2.2V79v3.7c4.6,0,8.4-2.3,10.4-5.9L186.1,74.9z M178.9,79v-3.7c-1.9,0-3.2-0.9-4-2.2l-3.2,1.9l-3.2,1.9
	c2.1,3.6,5.8,5.9,10.4,5.9V79z M171.6,74.9l3.2-1.9l-13.9-24.2l-3.2,1.9l-3.2,1.9l13.9,24.2L171.6,74.9z M157.7,50.7l3.3-1.8
	c-0.4-0.7-0.6-1.5-0.6-2.4h-3.7h-3.7c0,2.2,0.5,4.2,1.5,6L157.7,50.7z M156.7,46.5h3.7c0-2.7,1.8-4.5,4.5-4.5v-3.7v-3.7
	c-6.8,0-12,5.1-12,12H156.7z M164.9,38.2V42c1.8,0,3.1,0.7,3.9,2.1l3.2-1.9l3.2-1.9c-2.4-4.1-6.4-5.8-10.4-5.8V38.2z M203.8,70.8
	h3.7V46.5h-3.7h-3.7v24.2H203.8z M203.8,46.5h3.7c0-2.7,1.8-4.5,4.5-4.5v-3.7v-3.7c-6.9,0-12,5.1-12,12H203.8z M212.1,38.2V42
	c2.7,0,4.5,1.8,4.5,4.5h3.7h3.7c0-6.8-5.1-12-12-12V38.2z M220.3,46.5h-3.7v24.2h3.7h3.7V46.5H220.3z M220.3,70.8h-3.7
	c0,2.7-1.8,4.5-4.5,4.5V79v3.7c6.8,0,12-5.1,12-12H220.3z M212.1,79v-3.7c-2.7,0-4.5-1.8-4.5-4.5h-3.7h-3.7c0,6.8,5.1,12,12,12V79z
	 M226.8,70.1l3.4-1.5l0,0L226.8,70.1z M227.2,61.9l3.2,1.9l1.1-1.8l-1-1.8L227.2,61.9z M255.6,47.2l-3.4,1.5l0,0L255.6,47.2z
	 M255.1,55.3l-3.2-1.9l-1.1,1.8l1,1.9L255.1,55.3z M226.8,70.1l3.4-1.5c-0.3-0.6-0.4-1.3-0.4-2.1H226h-3.7c0,1.9,0.4,3.6,1.1,5.2
	L226.8,70.1z M226,66.5h3.7c0-1,0.3-1.9,0.7-2.6l-3.2-1.9l-3.2-1.9c-1.1,1.9-1.7,4.1-1.7,6.4H226z M227.2,61.9l3.3-1.8
	c-0.9-1.7-1.5-3.8-1.5-6.1h-3.7h-3.7c0,3.5,0.9,6.8,2.4,9.6L227.2,61.9z M225.3,54.1h3.7c0-7.1,5-12.1,12.1-12.1v-3.7v-3.7
	c-11.3,0-19.6,8.3-19.6,19.6H225.3z M241.2,38.2V42c5.2,0,9.2,2.7,11,6.7l3.4-1.5l3.4-1.5c-3.1-6.8-9.8-11.1-17.8-11.1V38.2z
	 M255.6,47.2l-3.4,1.5c0.3,0.6,0.4,1.3,0.4,2.1h3.7h3.7c0-1.9-0.4-3.6-1.1-5.2L255.6,47.2z M256.3,50.8h-3.7c0,1.1-0.3,1.9-0.7,2.6
	l3.2,1.9l3.2,1.9c1.1-1.9,1.8-4.1,1.8-6.5H256.3z M255.1,55.3l-3.3,1.8c0.9,1.7,1.5,3.8,1.5,6.1h3.7h3.7c0-3.5-0.9-6.8-2.4-9.6
	L255.1,55.3z M257,63.1h-3.7c0,7.1-5,12.1-12.1,12.1V79v3.7c11.3,0,19.6-8.3,19.6-19.6H257z M241.2,79v-3.7c-5.2,0-9.2-2.7-11-6.7
	l-3.4,1.5l-3.4,1.5c3.1,6.8,9.8,11.1,17.8,11.1V79z"/>
<path class="st2" d="M25.6,66.6c-0.2-0.2-0.5-0.2-0.7,0l-4.4,4.5c-1.6,1.6-3.7,2.5-5.9,2.5c-2.2,0-4.4-0.9-5.9-2.5
	c-1.6-1.6-2.5-3.8-2.5-6c0-2.3,0.9-4.4,2.4-6.1l6.9-7.1c0.1-0.1,0.2-0.3,0.2-0.5c0,0,0-0.1,0-0.1c0-0.8,0.1-1.6,0.2-2.3
	c0-0.2-0.3-0.4-0.4-0.2L7,57.3c-2,2-3.1,4.8-3.1,7.7c0,2.9,1.1,5.6,3.1,7.6c2,2,4.7,3.2,7.5,3.2c2.8,0,5.5-1.1,7.5-3.1l4.4-4.5
	c0.2-0.2,0.2-0.5,0-0.7L25.6,66.6z"/>
<path class="st3" d="M41,76.3c-1.4,0-2.8-0.3-4.1-0.8c-1.3-0.5-2.5-1.3-3.4-2.3L20,59.4c-2-2-3.1-4.8-3.1-7.7c0-2.9,1.1-5.6,3.1-7.7
	c2-2,4.7-3.2,7.5-3.2c2.8,0,5.5,1.1,7.5,3.2l13.5,13.7c1.5,1.5,2.5,3.4,2.9,5.5c0.4,2.1,0.2,4.3-0.6,6.3c-0.8,2-2.2,3.7-3.9,4.9
	C45.2,75.7,43.1,76.3,41,76.3z M35,71.6c1.6,1.6,3.7,2.5,5.9,2.5c2.2,0,4.4-0.9,5.9-2.5c1.6-1.6,2.5-3.8,2.5-6
	c0-2.3-0.9-4.4-2.4-6.1L33.5,45.7c-0.8-0.8-1.7-1.4-2.7-1.9c-1-0.4-2.1-0.7-3.2-0.7c-1.1,0-2.2,0.2-3.2,0.6c-1,0.4-2,1.1-2.7,1.9
	c-0.8,0.8-1.4,1.8-1.8,2.8c-0.4,1-0.6,2.2-0.6,3.3c0,1.1,0.2,2.3,0.7,3.3c0.4,1,1.1,2,1.9,2.8L35,71.6z"/>
<path class="st4" d="M46.5,44.6L42,49.1c-0.2,0.2-0.2,0.5,0,0.7l0.9,0.9c0.2,0.2,0.5,0.2,0.7,0l4.4-4.5c1.6-1.6,3.7-2.5,5.9-2.5
	c2.2,0,4.4,0.9,5.9,2.5c1.6,1.6,2.5,3.8,2.5,6c0,2.3-0.9,4.4-2.4,6.1L53,65.4c-0.1,0.1-0.2,0.3-0.2,0.5c0,0.8-0.1,1.6-0.2,2.4
	c0,0.2,0.3,0.4,0.4,0.2l8.5-8.6c2-2,3.1-4.8,3.1-7.7c0-2.9-1.1-5.6-3.1-7.7c-2-2-4.7-3.2-7.5-3.2C51.2,41.4,48.5,42.5,46.5,44.6z"/>
</svg>
