<?xml version="1.0" encoding="utf-8"?>
<!-- Generator: Adobe Illustrator 28.0.0, SVG Export Plug-In . SVG Version: 6.00 Build 0)  -->
<svg version="1.1" id="Layer_1" xmlns="http://www.w3.org/2000/svg" xmlns:xlink="http://www.w3.org/1999/xlink" x="0px" y="0px"
	 viewBox="0 0 289 122" style="enable-background:new 0 0 289 122;" xml:space="preserve">
<style type="text/css">
	.st0{fill:#99E9F2;enable-background:new    ;}
	.st1{fill:#64B5F6;enable-background:new    ;}
	.st2{fill:#6E6EFD;enable-background:new    ;}
	.st3{fill:#FFFFFF;filter:url(#Adobe_OpacityMaskFilter);}
	.st4{mask:url(#path-1-inside-1_2073_210_00000102517803074403636100000000191492554016252605_);fill:#FFFFFF;}
</style>
<path class="st0" d="M23.2,66.9c-0.2-0.2-0.4-0.2-0.6,0l-4,4.1c-1.4,1.4-3.4,2.2-5.4,2.2c-2,0-3.9-0.8-5.3-2.3s-2.2-3.4-2.2-5.4
	c0-2,0.8-4,2.2-5.5l6.2-6.4c0.1-0.1,0.2-0.3,0.2-0.5c0,0,0,0,0-0.1c0-0.7,0.1-1.4,0.2-2.1c0-0.2-0.2-0.4-0.4-0.2l-7.6,7.8
	c-1.8,1.8-2.8,4.3-2.8,6.9c0,2.6,1,5.1,2.8,6.9c1.8,1.8,4.2,2.9,6.8,2.9s5-1,6.8-2.8l4-4.1c0.2-0.2,0.2-0.4,0-0.6L23.2,66.9z"/>
<path class="st1" d="M37,75.7c-1.3,0-2.5-0.2-3.7-0.7c-1.2-0.5-2.2-1.2-3.1-2.1L18.1,60.5c-1.8-1.8-2.8-4.3-2.8-6.9
	c0-2.6,1-5.1,2.8-6.9c1.8-1.8,4.2-2.9,6.8-2.9c2.5,0,5,1,6.8,2.9L43.8,59c1.3,1.4,2.3,3.1,2.6,5c0.4,1.9,0.2,3.9-0.5,5.6
	c-0.7,1.8-2,3.3-3.5,4.4C40.8,75.1,38.9,75.7,37,75.7z M31.7,71.4c1.4,1.4,3.3,2.2,5.4,2.2s3.9-0.8,5.3-2.3c1.4-1.4,2.2-3.4,2.2-5.4
	c0-2-0.8-4-2.2-5.5L30.2,48.1c-0.7-0.7-1.5-1.3-2.5-1.7c-0.9-0.4-1.9-0.6-2.9-0.6c-1,0-2,0.2-2.9,0.6c-0.9,0.4-1.8,1-2.5,1.7
	c-0.7,0.7-1.3,1.6-1.6,2.5c-0.4,0.9-0.6,2-0.6,3c0,1,0.2,2,0.6,3c0.4,0.9,1,1.8,1.7,2.5L31.7,71.4z"/>
<path class="st2" d="M42,47.1l-4,4.1c-0.2,0.2-0.2,0.4,0,0.6l0.8,0.8c0.2,0.2,0.4,0.2,0.6,0l4-4.1c1.4-1.4,3.3-2.2,5.4-2.2
	c2,0,3.9,0.8,5.3,2.3c1.4,1.4,2.2,3.4,2.2,5.4c0,2-0.8,4-2.2,5.5l-6.2,6.4c-0.1,0.1-0.2,0.3-0.2,0.5c0,0.7-0.1,1.5-0.2,2.2
	c0,0.2,0.2,0.4,0.4,0.2l7.6-7.8c1.8-1.8,2.8-4.3,2.8-6.9c0-2.6-1-5.1-2.8-6.9c-1.8-1.8-4.2-2.9-6.8-2.9C46.2,44.2,43.7,45.3,42,47.1
	z"/>
<defs>
	<filter id="Adobe_OpacityMaskFilter" filterUnits="userSpaceOnUse" x="68.6" y="42.1" width="167.1" height="41.9">
		<feColorMatrix  type="matrix" values="1 0 0 0 0  0 1 0 0 0  0 0 1 0 0  0 0 0 1 0"/>
	</filter>
</defs>
<mask maskUnits="userSpaceOnUse" x="68.6" y="42.1" width="167.1" height="41.9" id="path-1-inside-1_2073_210_00000102517803074403636100000000191492554016252605_">
	<path class="st3" d="M94.7,78.4l-8.5-9.2v4.3c0,4.2-3,7.2-7.2,7.2c-4.2,0-7.2-3-7.2-7.2v-21c0-4.2,3-7.2,7.2-7.2
		c2.2,0,4.1,0.8,5.4,2.2l8.5,9.2v-4.3c0-4.2,3-7.2,7.2-7.2c4.2,0,7.2,3,7.2,7.2v21c0,4.2-3,7.2-7.2,7.2C97.9,80.7,96,79.9,94.7,78.4
		z M134.8,77.2l-1.6-2.8h-8.6l-1.6,2.8c-1.4,2.4-3.7,3.4-6.2,3.4c-4.2,0-7.2-3-7.2-7.2c0-1.3,0.3-2.6,0.9-3.6l12.1-21
		c1.2-2.2,3.4-3.5,6.3-3.5c2.8,0,5,1.4,6.3,3.5l12.1,21c0.6,1.1,0.9,2.3,0.9,3.6c0,4.2-3,7.2-7.2,7.2
		C138.5,80.7,136.2,79.6,134.8,77.2z M158.7,48.7l5.9,10.2l5.9-10.2c1.4-2.4,3.7-3.4,6.2-3.4c4.2,0,7.2,3,7.2,7.2
		c0,1.3-0.3,2.6-0.9,3.6l-12.1,21c-1.2,2.2-3.4,3.5-6.3,3.5s-5-1.4-6.3-3.5l-12.1-21c-0.6-1.1-0.9-2.3-0.9-3.6c0-4.2,3-7.2,7.2-7.2
		C155,45.3,157.3,46.3,158.7,48.7z M186.2,73.5v-21c0-4.2,3-7.2,7.2-7.2c4.2,0,7.2,3,7.2,7.2v21c0,4.2-3,7.2-7.2,7.2
		C189.3,80.7,186.2,77.7,186.2,73.5z M206.2,72.9c-0.4-1-0.7-2-0.7-3.2c0-1.4,0.4-2.8,1.1-3.9c-1.1-2-1.7-4.3-1.7-6.8
		c0-8,5.8-13.8,13.8-13.8c5.7,0,10.4,3.1,12.5,7.7c0.4,1,0.7,2,0.7,3.2c0,1.5-0.4,2.8-1.1,3.9c1.1,2,1.7,4.3,1.7,6.8
		c0,8-5.8,13.8-13.8,13.8C212.9,80.7,208.3,77.6,206.2,72.9z"/>
</mask>
<path class="st4" d="M94.7,78.4l2.4-2.2l0,0l0,0L94.7,78.4z M86.2,69.2l2.4-2.2L83,60.9v8.3H86.2z M84.4,47.5L82,49.7l0,0l0,0
	L84.4,47.5z M92.9,56.8L90.5,59l5.6,6.1v-8.3H92.9z M94.7,78.4l2.4-2.2L88.6,67l-2.4,2.2l-2.4,2.2l8.5,9.2L94.7,78.4z M86.2,69.2H83
	v4.3h3.2h3.2v-4.3H86.2z M86.2,73.5H83c0,2.4-1.6,3.9-3.9,3.9v3.2v3.2c5.9,0,10.4-4.5,10.4-10.4H86.2z M79,80.7v-3.2
	c-2.4,0-3.9-1.6-3.9-3.9h-3.2h-3.2c0,5.9,4.5,10.4,10.4,10.4V80.7z M71.9,73.5h3.2v-21h-3.2h-3.2v21H71.9z M71.9,52.5h3.2
	c0-2.4,1.6-3.9,3.9-3.9v-3.2v-3.2c-5.9,0-10.4,4.5-10.4,10.4H71.9z M79,45.3v3.2c1.4,0,2.3,0.5,3,1.2l2.4-2.2l2.4-2.2
	c-2-2.2-4.7-3.3-7.8-3.3V45.3z M84.4,47.5L82,49.7l8.5,9.2l2.4-2.2l2.4-2.2l-8.5-9.2L84.4,47.5z M92.9,56.8h3.2v-4.3h-3.2h-3.2v4.3
	H92.9z M92.9,52.5h3.2c0-2.4,1.6-3.9,3.9-3.9v-3.2v-3.2c-5.9,0-10.4,4.5-10.4,10.4H92.9z M100.1,45.3v3.2c2.4,0,3.9,1.6,3.9,3.9h3.2
	h3.2c0-5.9-4.5-10.4-10.4-10.4V45.3z M107.3,52.5H104v21h3.2h3.2v-21H107.3z M107.3,73.5H104c0,2.4-1.6,3.9-3.9,3.9v3.2v3.2
	c5.9,0,10.4-4.5,10.4-10.4H107.3z M100.1,80.7v-3.2c-1.4,0-2.3-0.5-3-1.2l-2.4,2.2l-2.4,2.2c2,2.2,4.7,3.3,7.8,3.3V80.7z
	 M134.8,77.2l2.8-1.6l0,0l0,0L134.8,77.2z M133.2,74.5l2.8-1.6l-0.9-1.6h-1.9V74.5z M124.6,74.5v-3.2h-1.9l-0.9,1.6L124.6,74.5z
	 M123,77.2l2.8,1.6l0,0l0,0L123,77.2z M110.5,69.9l-2.8-1.6l0,0l0,0L110.5,69.9z M122.6,48.8l-2.8-1.6l0,0L122.6,48.8z M135.2,48.8
	l2.8-1.6l0,0L135.2,48.8z M147.3,69.9l2.8-1.5l0,0l0,0L147.3,69.9z M134.8,77.2l2.8-1.6l-1.6-2.8l-2.8,1.6l-2.8,1.6l1.6,2.8
	L134.8,77.2z M133.2,74.5v-3.2h-8.6v3.2v3.2h8.6V74.5z M124.6,74.5l-2.8-1.6l-1.6,2.8l2.8,1.6l2.8,1.6l1.6-2.8L124.6,74.5z
	 M123,77.2l-2.8-1.6c-0.7,1.2-1.9,1.8-3.4,1.8v3.2v3.2c3.5,0,7-1.5,9-5.1L123,77.2z M116.8,80.7v-3.2c-2.4,0-3.9-1.6-3.9-3.9h-3.2
	h-3.2c0,5.9,4.5,10.4,10.4,10.4V80.7z M109.6,73.5h3.2c0-0.8,0.2-1.5,0.5-2.1l-2.8-1.5l-2.8-1.5c-0.8,1.5-1.3,3.3-1.3,5.2H109.6z
	 M110.5,69.9l2.8,1.6l12.1-21l-2.8-1.6l-2.8-1.6l-12.1,21L110.5,69.9z M122.6,48.8l2.8,1.6c0.7-1.2,1.8-1.9,3.5-1.9v-3.2v-3.2
	c-4,0-7.3,2-9.1,5.2L122.6,48.8z M128.9,45.3v3.2c1.6,0,2.8,0.8,3.5,1.9l2.8-1.6l2.8-1.6c-1.8-3.1-5.1-5.2-9.1-5.2V45.3z
	 M135.2,48.8l-2.8,1.6l12.1,21l2.8-1.6l2.8-1.6l-12.1-21L135.2,48.8z M147.3,69.9l-2.8,1.5c0.3,0.6,0.5,1.3,0.5,2.1h3.2h3.2
	c0-1.9-0.5-3.7-1.3-5.2L147.3,69.9z M148.2,73.5H145c0,2.4-1.6,3.9-3.9,3.9v3.2v3.2c5.9,0,10.4-4.5,10.4-10.4H148.2z M141,80.7v-3.2
	c-1.6,0-2.7-0.6-3.4-1.8l-2.8,1.6l-2.8,1.6c2.1,3.5,5.5,5.1,9,5.1V80.7z M158.7,48.7l2.8-1.6l0,0l0,0L158.7,48.7z M164.6,59
	l-2.8,1.6l2.8,4.9l2.8-4.9L164.6,59z M170.5,48.7l-2.8-1.6l0,0l0,0L170.5,48.7z M183,56.1l2.8,1.6l0,0l0,0L183,56.1z M170.9,77.1
	l2.8,1.6l0,0L170.9,77.1z M158.3,77.1l-2.8,1.6l0,0L158.3,77.1z M146.2,56.1l-2.8,1.5l0,0l0,0L146.2,56.1z M158.7,48.7l-2.8,1.6
	l5.9,10.2l2.8-1.6l2.8-1.6l-5.9-10.2L158.7,48.7z M164.6,59l2.8,1.6l5.9-10.2l-2.8-1.6l-2.8-1.6l-5.9,10.2L164.6,59z M170.5,48.7
	l2.8,1.6c0.7-1.2,1.9-1.8,3.4-1.8v-3.2v-3.2c-3.5,0-7,1.5-9,5.1L170.5,48.7z M176.7,45.3v3.2c2.4,0,3.9,1.6,3.9,3.9h3.2h3.2
	c0-5.9-4.5-10.4-10.4-10.4V45.3z M183.9,52.5h-3.2c0,0.8-0.2,1.5-0.5,2.1l2.8,1.5l2.8,1.5c0.8-1.5,1.3-3.3,1.3-5.2H183.9z M183,56.1
	l-2.8-1.6l-12.1,21l2.8,1.6l2.8,1.6l12.1-21L183,56.1z M170.9,77.1l-2.8-1.6c-0.7,1.2-1.8,1.9-3.5,1.9v3.2v3.2c4,0,7.3-2,9.1-5.2
	L170.9,77.1z M164.6,80.7v-3.2c-1.6,0-2.8-0.8-3.5-1.9l-2.8,1.6l-2.8,1.6c1.8,3.1,5.1,5.2,9.1,5.2V80.7z M158.3,77.1l2.8-1.6
	l-12.1-21l-2.8,1.6l-2.8,1.6l12.1,21L158.3,77.1z M146.2,56.1l2.8-1.5c-0.3-0.6-0.5-1.3-0.5-2.1h-3.2h-3.2c0,1.9,0.5,3.7,1.3,5.2
	L146.2,56.1z M145.3,52.5h3.2c0-2.4,1.6-3.9,3.9-3.9v-3.2v-3.2c-5.9,0-10.4,4.5-10.4,10.4H145.3z M152.5,45.3v3.2
	c1.6,0,2.7,0.6,3.4,1.8l2.8-1.6l2.8-1.6c-2.1-3.5-5.5-5.1-9-5.1V45.3z M186.2,73.5h3.2v-21h-3.2H183v21H186.2z M186.2,52.5h3.2
	c0-2.4,1.6-3.9,3.9-3.9v-3.2v-3.2c-5.9,0-10.4,4.5-10.4,10.4H186.2z M193.4,45.3v3.2c2.4,0,3.9,1.6,3.9,3.9h3.2h3.2
	c0-5.9-4.5-10.4-10.4-10.4V45.3z M200.6,52.5h-3.2v21h3.2h3.2v-21H200.6z M200.6,73.5h-3.2c0,2.4-1.6,3.9-3.9,3.9v3.2v3.2
	c5.9,0,10.4-4.5,10.4-10.4H200.6z M193.4,80.7v-3.2c-2.4,0-3.9-1.6-3.9-3.9h-3.2H183c0,5.9,4.5,10.4,10.4,10.4V80.7z M206.2,72.9
	l2.9-1.3l0,0L206.2,72.9z M206.6,65.9l2.8,1.6l0.9-1.6l-0.9-1.6L206.6,65.9z M231.2,53l-2.9,1.3l0,0L231.2,53z M230.8,60.1l-2.8-1.7
	l-1,1.6l0.9,1.6L230.8,60.1z M206.2,72.9l2.9-1.3c-0.2-0.5-0.4-1.1-0.4-1.8h-3.2h-3.2c0,1.6,0.3,3.1,1,4.5L206.2,72.9z M205.5,69.8
	h3.2c0-0.9,0.2-1.6,0.6-2.3l-2.8-1.6l-2.8-1.6c-1,1.6-1.5,3.5-1.5,5.5H205.5z M206.6,65.9l2.8-1.5c-0.8-1.5-1.3-3.3-1.3-5.3h-3.2
	h-3.2c0,3.1,0.8,5.9,2.1,8.3L206.6,65.9z M204.9,59.1h3.2c0-6.2,4.3-10.5,10.5-10.5v-3.2v-3.2c-9.8,0-17,7.2-17,17H204.9z
	 M218.7,45.3v3.2c4.5,0,8,2.4,9.5,5.8l2.9-1.3l2.9-1.3c-2.6-5.9-8.5-9.7-15.4-9.7V45.3z M231.2,53l-2.9,1.3c0.2,0.5,0.4,1.1,0.4,1.8
	h3.2h3.2c0-1.6-0.3-3.1-1-4.5L231.2,53z M231.8,56.2h-3.2c0,0.9-0.2,1.7-0.6,2.2l2.8,1.7l2.8,1.7c1-1.6,1.5-3.6,1.5-5.6H231.8z
	 M230.8,60.1l-2.8,1.5c0.8,1.5,1.3,3.3,1.3,5.3h3.2h3.2c0-3.1-0.8-5.9-2.1-8.3L230.8,60.1z M232.5,66.9h-3.2
	c0,6.2-4.3,10.5-10.5,10.5v3.2v3.2c9.8,0,17-7.2,17-17H232.5z M218.7,80.7v-3.2c-4.5,0-8-2.4-9.5-5.8l-2.9,1.3l-2.9,1.3
	c2.6,5.9,8.5,9.7,15.4,9.7V80.7z"/>
</svg>
