<?xml version="1.0" encoding="utf-8"?>
<!-- Generator: Adobe Illustrator 28.0.0, SVG Export Plug-In . SVG Version: 6.00 Build 0)  -->
<svg version="1.1" id="Layer_1" xmlns="http://www.w3.org/2000/svg" xmlns:xlink="http://www.w3.org/1999/xlink" x="0px" y="0px"
	 viewBox="0 0 289 122" style="enable-background:new 0 0 289 122;" xml:space="preserve">
<style type="text/css">
	.st0{fill:#99E9F2;enable-background:new    ;}
	.st1{enable-background:new    ;}
	.st2{fill:#64B5F6;}
	.st3{fill:#6E6EFD;enable-background:new    ;}
	.st4{fill:#FFFFFF;filter:url(#Adobe_OpacityMaskFilter);}
	.st5{mask:url(#path-1-inside-1_2073_210_00000045602390796733258200000010090599607493284738_);}
</style>
<path class="st0" d="M29.3,68.8c-0.2-0.2-0.5-0.2-0.7,0l-4.8,4.9c-1.7,1.7-4,2.7-6.4,2.7c-2.4,0-4.7-1-6.4-2.7
	c-1.7-1.7-2.6-4.1-2.6-6.5c0-2.4,0.9-4.8,2.6-6.5l7.4-7.6c0.1-0.2,0.2-0.4,0.2-0.6c0,0,0-0.1,0-0.1c0-0.8,0.1-1.7,0.2-2.5
	c0-0.3-0.3-0.4-0.5-0.3L9.3,59C7.2,61.1,6,64.1,6,67.2c0,3.1,1.2,6,3.3,8.2c2.1,2.2,5,3.4,8.1,3.4s5.9-1.2,8.1-3.4l4.8-4.9
	c0.2-0.2,0.2-0.5,0-0.7L29.3,68.8z"/>
<g class="st1">
	<path class="st2" d="M45.8,79.3c-1.5,0-3-0.3-4.4-0.9c-1.4-0.6-2.6-1.4-3.7-2.5L23.2,61.2C21.1,59,19.9,56,19.9,53
		c0-3.1,1.2-6,3.3-8.2c2.1-2.2,5-3.4,8.1-3.4c3,0,5.9,1.2,8.1,3.4l14.5,14.7c1.6,1.6,2.7,3.7,3.1,6c0.4,2.3,0.2,4.6-0.6,6.7
		c-0.9,2.1-2.3,3.9-4.2,5.2C50.2,78.6,48,79.3,45.8,79.3z M39.4,74.2c1.7,1.7,4,2.7,6.4,2.7s4.7-1,6.4-2.7c1.7-1.7,2.6-4,2.6-6.5
		c0-2.4-0.9-4.8-2.6-6.5L37.7,46.4c-0.8-0.9-1.8-1.6-2.9-2c-1.1-0.5-2.3-0.7-3.5-0.7c-1.2,0-2.4,0.2-3.5,0.7c-1.1,0.5-2.1,1.1-2.9,2
		c-0.8,0.9-1.5,1.9-2,3c-0.5,1.1-0.7,2.3-0.7,3.5c0,1.2,0.2,2.4,0.7,3.5c0.5,1.1,1.1,2.1,2,3L39.4,74.2z"/>
</g>
<path class="st3" d="M51.6,45.2l-4.8,4.9c-0.2,0.2-0.2,0.5,0,0.7l1,1c0.2,0.2,0.5,0.2,0.7,0l4.8-4.9c1.7-1.7,4-2.7,6.4-2.7
	c2.4,0,4.7,1,6.4,2.7c1.7,1.7,2.6,4,2.6,6.5c0,2.4-0.9,4.8-2.6,6.5l-7.4,7.6c-0.1,0.2-0.2,0.4-0.2,0.6c0,0.9-0.1,1.7-0.2,2.6
	c0,0.3,0.3,0.4,0.5,0.3l9.1-9.3c2.1-2.2,3.3-5.1,3.3-8.2s-1.2-6-3.3-8.2c-2.1-2.2-5-3.4-8.1-3.4C56.7,41.8,53.8,43.1,51.6,45.2z"/>
<defs>
	<filter id="Adobe_OpacityMaskFilter" filterUnits="userSpaceOnUse" x="74.2" y="37.1" width="185.3" height="46.4">
		<feColorMatrix  type="matrix" values="1 0 0 0 0  0 1 0 0 0  0 0 1 0 0  0 0 0 1 0"/>
	</filter>
</defs>
<mask maskUnits="userSpaceOnUse" x="74.2" y="37.1" width="185.3" height="46.4" id="path-1-inside-1_2073_210_00000045602390796733258200000010090599607493284738_">
	<path class="st4" d="M103.1,77.5l-9.4-10.2V72c0,4.6-3.3,8-8,8c-4.6,0-8-3.3-8-8V48.7c0-4.6,3.3-8,8-8c2.4,0,4.5,0.9,5.9,2.5
		l9.4,10.2v-4.8c0-4.6,3.3-8,8-8s8,3.3,8,8V72c0,4.6-3.3,8-8,8C106.6,80,104.5,79.1,103.1,77.5z M147.6,76.1l-1.8-3.1h-9.5l-1.8,3.1
		c-1.5,2.7-4.1,3.8-6.9,3.8c-4.6,0-8-3.3-8-8c0-1.5,0.4-2.9,1-4l13.4-23.3c1.4-2.4,3.8-3.9,7-3.9s5.6,1.5,7,3.9L161.4,68
		c0.6,1.2,1,2.5,1,4c0,4.6-3.3,8-8,8C151.6,80,149.1,78.8,147.6,76.1z M174.1,44.5l6.5,11.4l6.5-11.4c1.5-2.7,4.1-3.8,6.9-3.8
		c4.6,0,8,3.3,8,8c0,1.5-0.4,2.9-1,4L187.6,76c-1.4,2.4-3.8,3.9-7,3.9s-5.6-1.5-7-3.9l-13.4-23.3c-0.6-1.2-1-2.5-1-4
		c0-4.6,3.3-8,8-8C170,40.7,172.6,41.9,174.1,44.5z M204.6,72V48.7c0-4.6,3.3-8,8-8s8,3.3,8,8V72c0,4.6-3.3,8-8,8
		S204.6,76.6,204.6,72z M226.8,71.4c-0.5-1.1-0.7-2.2-0.7-3.5c0-1.6,0.4-3.1,1.2-4.4c-1.2-2.2-1.9-4.7-1.9-7.5
		c0-8.9,6.4-15.3,15.3-15.3c6.4,0,11.5,3.4,13.8,8.6c0.5,1.1,0.7,2.2,0.7,3.5c0,1.6-0.4,3.1-1.2,4.4c1.2,2.2,1.9,4.7,1.9,7.5
		c0,8.9-6.4,15.3-15.3,15.3C234.3,80,229.1,76.6,226.8,71.4z"/>
</mask>
<path class="st5" d="M103.1,77.5l2.7-2.4l0,0l0,0L103.1,77.5z M93.7,67.2l2.6-2.4l-6.2-6.7v9.2H93.7z M91.6,43.2L89,45.6l0,0l0,0
	L91.6,43.2z M101.1,53.4l-2.6,2.4l6.2,6.7v-9.2H101.1z M103.1,77.5l2.6-2.4l-9.4-10.2l-2.6,2.4L91,69.7l9.4,10.2L103.1,77.5z
	 M93.7,67.2h-3.6V72h3.6h3.6v-4.8H93.7z M93.7,72h-3.6c0,2.6-1.7,4.4-4.4,4.4V80v3.6c6.6,0,11.5-4.9,11.5-11.5H93.7z M85.7,80v-3.6
	c-2.6,0-4.4-1.7-4.4-4.4h-3.6h-3.6c0,6.6,4.9,11.5,11.5,11.5V80z M77.7,72h3.6V48.7h-3.6h-3.6V72H77.7z M77.7,48.7h3.6
	c0-2.6,1.7-4.4,4.4-4.4v-3.6v-3.6c-6.6,0-11.5,4.9-11.5,11.5H77.7z M85.7,40.7v3.6c1.5,0,2.6,0.5,3.3,1.3l2.7-2.4l2.7-2.4
	c-2.2-2.4-5.2-3.7-8.6-3.7V40.7z M91.6,43.2L89,45.6l9.4,10.2l2.6-2.4l2.6-2.4l-9.4-10.2L91.6,43.2z M101.1,53.4h3.6v-4.8h-3.6h-3.6
	v4.8H101.1z M101.1,48.7h3.6c0-2.6,1.7-4.4,4.4-4.4v-3.6v-3.6c-6.6,0-11.5,4.9-11.5,11.5H101.1z M109.1,40.7v3.6
	c2.6,0,4.4,1.7,4.4,4.4h3.6h3.6c0-6.6-4.9-11.5-11.5-11.5V40.7z M117,48.7h-3.6V72h3.6h3.6V48.7H117z M117,72h-3.6
	c0,2.6-1.7,4.4-4.4,4.4V80v3.6c6.6,0,11.5-4.9,11.5-11.5H117z M109.1,80v-3.6c-1.5,0-2.6-0.5-3.3-1.3l-2.7,2.4l-2.7,2.4
	c2.2,2.4,5.2,3.7,8.6,3.7V80z M147.6,76.1l3.1-1.8l0,0l0,0L147.6,76.1z M145.8,73.1l3.1-1.8l-1-1.8h-2.1V73.1z M136.3,73.1v-3.6
	h-2.1l-1,1.8L136.3,73.1z M134.5,76.1l3.1,1.8l0,0l0,0L134.5,76.1z M120.7,68l-3.1-1.8l0,0l0,0L120.7,68z M134.1,44.6l-3.1-1.8l0,0
	L134.1,44.6z M148,44.6l3.1-1.8l0,0L148,44.6z M161.4,68l3.1-1.7l0,0l0,0L161.4,68z M147.6,76.1l3.1-1.8l-1.8-3.1l-3.1,1.8l-3.1,1.8
	l1.8,3.1L147.6,76.1z M145.8,73.1v-3.6h-9.5v3.6v3.6h9.5V73.1z M136.3,73.1l-3.1-1.8l-1.8,3.1l3.1,1.8l3.1,1.8l1.8-3.1L136.3,73.1z
	 M134.5,76.1l-3.1-1.8c-0.8,1.4-2.1,2-3.8,2V80v3.6c3.9,0,7.7-1.7,10-5.6L134.5,76.1z M127.6,80v-3.6c-2.6,0-4.4-1.7-4.4-4.4h-3.6
	h-3.6c0,6.6,4.9,11.5,11.5,11.5V80z M119.7,72h3.6c0-0.9,0.2-1.7,0.6-2.3l-3.1-1.7l-3.1-1.7c-0.9,1.7-1.4,3.7-1.4,5.7H119.7z
	 M120.7,68l3.1,1.8l13.4-23.3l-3.1-1.8l-3.1-1.8l-13.4,23.3L120.7,68z M134.1,44.6l3.1,1.8c0.7-1.3,2-2.1,3.8-2.1v-3.6v-3.6
	c-4.4,0-8,2.2-10.1,5.7L134.1,44.6z M141,40.7v3.6c1.8,0,3.1,0.8,3.8,2.1l3.1-1.8l3.1-1.8c-2-3.5-5.6-5.7-10.1-5.7V40.7z M148,44.6
	l-3.1,1.8l13.4,23.3l3.1-1.8l3.1-1.8l-13.4-23.3L148,44.6z M161.4,68l-3.1,1.7c0.3,0.6,0.6,1.4,0.6,2.3h3.6h3.6
	c0-2.1-0.5-4.1-1.4-5.7L161.4,68z M162.4,72h-3.6c0,2.6-1.7,4.4-4.4,4.4V80v3.6c6.6,0,11.5-4.9,11.5-11.5H162.4z M154.5,80v-3.6
	c-1.7,0-3-0.7-3.8-2l-3.1,1.8l-3.1,1.8c2.3,3.9,6.1,5.6,10,5.6V80z M174.1,44.5l3.1-1.8l0,0l0,0L174.1,44.5z M180.6,55.9l-3.1,1.8
	l3.1,5.4l3.1-5.4L180.6,55.9z M187.1,44.5l-3.1-1.8l0,0l0,0L187.1,44.5z M201,52.7l3.1,1.8l0,0l0,0L201,52.7z M187.6,76l3.1,1.8l0,0
	L187.6,76z M173.7,76l-3.1,1.8l0,0L173.7,76z M160.2,52.7l-3.1,1.7l0,0l0,0L160.2,52.7z M174.1,44.5l-3.1,1.8l6.5,11.4l3.1-1.8
	l3.1-1.8l-6.5-11.4L174.1,44.5z M180.6,55.9l3.1,1.8l6.5-11.4l-3.1-1.8l-3.1-1.8l-6.5,11.4L180.6,55.9z M187.1,44.5l3.1,1.8
	c0.8-1.4,2.1-2,3.8-2v-3.6v-3.6c-3.9,0-7.7,1.7-10,5.6L187.1,44.5z M194,40.7v3.6c2.6,0,4.4,1.7,4.4,4.4h3.6h3.6
	c0-6.6-4.9-11.5-11.5-11.5V40.7z M202,48.7h-3.6c0,0.9-0.2,1.7-0.6,2.3l3.1,1.7l3.1,1.7c0.9-1.7,1.4-3.7,1.4-5.7H202z M201,52.7
	l-3.1-1.8l-13.4,23.3l3.1,1.8l3.1,1.8l13.4-23.3L201,52.7z M187.6,76l-3.1-1.8c-0.7,1.3-2,2.1-3.8,2.1V80v3.6c4.4,0,8-2.2,10.1-5.7
	L187.6,76z M180.6,80v-3.6c-1.8,0-3.1-0.8-3.8-2.1l-3.1,1.8l-3.1,1.8c2,3.5,5.6,5.7,10.1,5.7V80z M173.7,76l3.1-1.8l-13.4-23.3
	l-3.1,1.8l-3.1,1.8l13.4,23.3L173.7,76z M160.2,52.7l3.1-1.7c-0.3-0.6-0.6-1.4-0.6-2.3h-3.6h-3.6c0,2.1,0.5,4.1,1.4,5.7L160.2,52.7z
	 M159.2,48.7h3.6c0-2.6,1.7-4.4,4.4-4.4v-3.6v-3.6c-6.6,0-11.5,4.9-11.5,11.5H159.2z M167.2,40.7v3.6c1.7,0,3,0.7,3.8,2l3.1-1.8
	l3.1-1.8c-2.3-3.9-6.1-5.6-10-5.6V40.7z M204.6,72h3.6V48.7h-3.6h-3.6V72H204.6z M204.6,48.7h3.6c0-2.6,1.7-4.4,4.4-4.4v-3.6v-3.6
	c-6.6,0-11.5,4.9-11.5,11.5H204.6z M212.6,40.7v3.6c2.6,0,4.4,1.7,4.4,4.4h3.6h3.6c0-6.6-4.9-11.5-11.5-11.5V40.7z M220.6,48.7H217
	V72h3.6h3.6V48.7H220.6z M220.6,72H217c0,2.6-1.7,4.4-4.4,4.4V80v3.6c6.6,0,11.5-4.9,11.5-11.5H220.6z M212.6,80v-3.6
	c-2.6,0-4.4-1.7-4.4-4.4h-3.6h-3.6c0,6.6,4.9,11.5,11.5,11.5V80z M226.8,71.4l3.3-1.5l0,0L226.8,71.4z M227.2,63.5l3.1,1.8l1-1.7
	l-0.9-1.8L227.2,63.5z M254.5,49.3l-3.3,1.5l0,0L254.5,49.3z M254.1,57.1l-3.1-1.9l-1.1,1.8l1,1.8L254.1,57.1z M226.8,71.4l3.3-1.5
	c-0.3-0.6-0.4-1.3-0.4-2H226h-3.6c0,1.8,0.4,3.5,1.1,5L226.8,71.4z M226,67.9h3.6c0-0.9,0.3-1.8,0.7-2.5l-3.1-1.8l-3.1-1.8
	c-1.1,1.8-1.7,3.9-1.7,6.2H226z M227.2,63.5l3.2-1.7c-0.9-1.7-1.4-3.6-1.4-5.8h-3.6h-3.6c0,3.4,0.8,6.5,2.3,9.2L227.2,63.5z
	 M225.4,56h3.6c0-6.9,4.8-11.7,11.7-11.7v-3.6v-3.6c-10.8,0-18.9,8-18.9,18.9H225.4z M240.6,40.7v3.6c5,0,8.8,2.6,10.6,6.5l3.3-1.5
	l3.3-1.5c-2.9-6.5-9.4-10.7-17.1-10.7V40.7z M254.5,49.3l-3.3,1.5c0.3,0.6,0.4,1.3,0.4,2h3.6h3.6c0-1.8-0.4-3.5-1.1-5L254.5,49.3z
	 M255.2,52.8h-3.6c0,1-0.3,1.9-0.6,2.5l3.1,1.9l3.1,1.9c1.1-1.8,1.7-3.9,1.7-6.2H255.2z M254.1,57.1l-3.2,1.7
	c0.9,1.7,1.4,3.6,1.4,5.8h3.6h3.6c0-3.4-0.8-6.5-2.3-9.2L254.1,57.1z M255.9,64.7h-3.6c0,6.9-4.8,11.7-11.7,11.7V80v3.6
	c10.8,0,18.9-8,18.9-18.9H255.9z M240.6,80v-3.6c-5,0-8.8-2.6-10.6-6.5l-3.3,1.5l-3.3,1.5c2.9,6.5,9.4,10.7,17.1,10.7V80z"/>
</svg>
